<svg xmlns="http://www.w3.org/2000/svg" viewBox="0 0 5749.61 2505.16"><defs><style>.cls-1{fill:#2962ff;}.cls-2{fill:#f2f2f2;}</style></defs><g id="Layer_2" data-name="Layer 2"><g id="Layer_1-2" data-name="Layer 1"><path class="cls-1" d="M239.84,329.3l61.33-213.67H437.5V684.38H336.72V516l4.69-266L266.8,496.88H212.5L145.7,260.55,150.39,516V684.38H49.61V115.63H185.94Z" transform="translate(-10.94 -107.42)"/><path class="cls-2" d="M884.38,115.63V204.3H773.44V596.09H884.38v88.29H555.47V596.09h108.2V204.3H555.47V115.63Z" transform="translate(-10.94 -107.42)"/><path class="cls-2" d="M1277,684.38l-158.2-366.8v366.8H1008.2V115.63h110.55l157,365.23.39-365.23h110.16V684.38Z" transform="translate(-10.94 -107.42)"/><path class="cls-2" d="M1844.53,115.63V204.3H1733.59V596.09h110.94v88.29h-328.9V596.09h108.2V204.3h-108.2V115.63Z" transform="translate(-10.94 -107.42)"/><path class="cls-2" d="M2347.85,583.59a180.4,180.4,0,0,1-42.38,58.6q-26.56,24.22-63.28,37.3t-81.25,13.09q-35.16,0-65-9.18A182.72,182.72,0,0,1,2042.19,657a185,185,0,0,1-38.87-38.67,241.13,241.13,0,0,1-28.71-50,297.33,297.33,0,0,1-17.38-60.16,382.5,382.5,0,0,1-6.06-69.53V362.11a376.58,376.58,0,0,1,5.47-65.43,276.58,276.58,0,0,1,16.41-57.62,216.51,216.51,0,0,1,32.81-57.81,211.73,211.73,0,0,1,46.09-43,192,192,0,0,1,50.59-22.85,211.41,211.41,0,0,1,59.18-8q46.88,0,83.4,13.28t62.3,37.89q25.78,24.61,40.63,60.16t18.75,80.08H2257.42q-1.56-25.4-7.62-44.53t-17.38-32a74.84,74.84,0,0,0-29.1-19q-17.39-6.45-41.6-6.44a100.67,100.67,0,0,0-24,2.73,76.81,76.81,0,0,0-20.51,8.2q-16,9.38-27.15,26.76A153.07,153.07,0,0,0,2072.27,275a241.81,241.81,0,0,0-7.43,39.65,436.17,436.17,0,0,0-2.34,46.68v77.34a444.69,444.69,0,0,0,3.71,60.74q3.7,26.76,11.52,46.68a112.51,112.51,0,0,0,13.09,24.22,77,77,0,0,0,17.38,17.58,72.46,72.46,0,0,0,23.64,11.52,106.24,106.24,0,0,0,29.1,3.72q21.48,0,38.67-5.47a73.57,73.57,0,0,0,29.3-17.19q12.11-11.72,19.14-30.08t8.59-44.14h109.77Q2363.67,549.22,2347.85,583.59Z" transform="translate(-10.94 -107.42)"/><path class="cls-2" d="M2830.86,492.58q0,47.66-13.09,84.76t-37.69,62.5q-25,25.78-60.74,39.07t-81.45,13.28q-43,0-77.54-13.28a162.06,162.06,0,0,1-59.18-38.68q-24.6-25.38-38.08-62.69t-13.48-85l.39-376.95h109.77l.39,377q.38,28.52,5.66,50t15.82,35.55a62,62,0,0,0,23.83,19.33q14.06,6.45,32.42,6.45,19.92,0,35.35-6.84a63.31,63.31,0,0,0,25.59-20.51q10.93-14.05,16.4-35.15t5.86-48.83l.39-376.95h109Z" transform="translate(-10.94 -107.42)"/><path class="cls-2" d="M3041.41,471.88v212.5H2931.64V115.63h190.63q47.25,0,85.54,11.13t65.63,32.62a144,144,0,0,1,41.6,53.51q14.64,32,14.65,74.22,0,30.47-7.23,54.88A151.06,151.06,0,0,1,3302,385.55a152.65,152.65,0,0,1-32.61,34,214.94,214.94,0,0,1-42.39,25L3349.22,679.3v5.08H3231.64l-107-212.5Zm81.25-89.07q25.38,0,44.72-7.22t31.45-20.9a73.12,73.12,0,0,0,15.43-26.17,103.61,103.61,0,0,0,5.27-34q0-22.65-6.83-40a69.84,69.84,0,0,0-20.51-28.71q-12.12-10.16-29.69-15.62t-40.23-5.47h-80.86V382.81Z" transform="translate(-10.94 -107.42)"/><path class="cls-2" d="M3701.76,507.42q-5.28-13.28-17.78-25-12.89-11.32-33.39-20.9t-51-17.77q-47.27-12.88-83-31.25t-58.4-40.23q-22.65-21.88-34.18-48.44T3412.5,266q0-35.94,15.23-65.24a149.52,149.52,0,0,1,42.19-50q27-20.7,63.67-31.83t79.69-11.14q44.53,0,81.45,12.89t63.47,35.94a166.81,166.81,0,0,1,41.41,55.47q14.83,32,14.84,70.31h-107a111.92,111.92,0,0,0-6.83-35.15,77.51,77.51,0,0,0-17.78-27.74,85.89,85.89,0,0,0-29.88-17.77q-17.78-6.45-41.6-6.45-21.89,0-38.87,5.28t-28.71,14.64A65.18,65.18,0,0,0,3526,238.09a66.54,66.54,0,0,0-6.06,28.32,53.61,53.61,0,0,0,8,28.9q8,12.9,23.24,23.05,15.24,10.54,36.92,19.14a462.05,462.05,0,0,0,49,16A415.51,415.51,0,0,1,3693,373.44a302.44,302.44,0,0,1,48.83,26.95q33.59,25,53.51,58.2t19.92,76.57q0,37.5-15,66.6a142.24,142.24,0,0,1-41.61,49q-26.57,20.33-63.28,30.67t-80.08,10.35a287.11,287.11,0,0,1-84.18-12.7q-41.6-12.69-72.46-37.3a182.21,182.21,0,0,1-46.29-57q-17-32.82-17-77h107.82q.76,25.79,9,44.14a78.15,78.15,0,0,0,23,30.08q14.45,11.72,35,17.19a174.65,174.65,0,0,0,45.11,5.47q21.89,0,38.87-5.08t28.71-14.06a61.07,61.07,0,0,0,18-21.68,62.46,62.46,0,0,0,6.25-27.93A76.7,76.7,0,0,0,3701.76,507.42Z" transform="translate(-10.94 -107.42)"/><path class="cls-2" d="M4282,511.52a292.08,292.08,0,0,1-19.14,61.14,241.09,241.09,0,0,1-32.81,51.56,186.5,186.5,0,0,1-44.53,39.06,200.88,200.88,0,0,1-49.81,21.29,215.36,215.36,0,0,1-58.4,7.62q-33.2,0-61.32-8.6a189,189,0,0,1-51.18-24.21,198.34,198.34,0,0,1-40.62-39.65,227.16,227.16,0,0,1-30.08-52.54,292.25,292.25,0,0,1-16.6-58.6,378.36,378.36,0,0,1-5.66-66.79V359a376.65,376.65,0,0,1,6.44-71.09,290.53,290.53,0,0,1,18.95-62.11A228.29,228.29,0,0,1,3926.76,177a185.11,185.11,0,0,1,40-37.5,176.26,176.26,0,0,1,50-23.43q27.72-8.2,60.15-8.21a218.17,218.17,0,0,1,61.53,8.4,183.28,183.28,0,0,1,51.75,24,174.6,174.6,0,0,1,40.43,35.94,238.37,238.37,0,0,1,29.89,46.49,285.2,285.2,0,0,1,20.9,63.28,355.05,355.05,0,0,1,7.22,73V441.8A352.68,352.68,0,0,1,4282,511.52ZM4175.2,316.6a229.26,229.26,0,0,0-6.84-36.52,157.2,157.2,0,0,0-15.63-37.7,97.1,97.1,0,0,0-23-27.15,82.79,82.79,0,0,0-23.64-12.1,92.73,92.73,0,0,0-29.1-4.3,91,91,0,0,0-27.54,3.9,72.64,72.64,0,0,0-22.07,11.33,95.24,95.24,0,0,0-22.46,27.35q-9.18,16.4-14.25,38.28a264.35,264.35,0,0,0-5.67,36.72q-1.76,19.92-1.76,41.79v83.6q0,20.7,1.57,39.84a236,236,0,0,0,5.46,35.55,156.71,156.71,0,0,0,12.7,37.69q8.4,17,19.73,27.54a76.46,76.46,0,0,0,24,14.46q13.47,5.07,30.66,5.07a92.4,92.4,0,0,0,30.08-4.68,73.88,73.88,0,0,0,24.22-13.68,94,94,0,0,0,22.46-27.54,161.26,161.26,0,0,0,14.65-37.69,251.52,251.52,0,0,0,6.45-35.94,374.64,374.64,0,0,0,2.14-40.62V358.2A387.81,387.81,0,0,0,4175.2,316.6Z" transform="translate(-10.94 -107.42)"/><path class="cls-2" d="M4849.61,115.63h147.27q39.44,0,73.82,9.57a237.43,237.43,0,0,1,62.5,27.14,192.18,192.18,0,0,1,43.95,35.36,263.07,263.07,0,0,1,33.79,45.5,272.8,272.8,0,0,1,26,66.41,314.76,314.76,0,0,1,9.18,77.34v46.88a313.84,313.84,0,0,1-8.59,74.61,275.45,275.45,0,0,1-24.22,64.45,272.09,272.09,0,0,1-34.76,48.24,205,205,0,0,1-43.75,36.92,229.21,229.21,0,0,1-61.14,27,262.71,262.71,0,0,1-71.29,9.38H4849.61Zm110.55,480.46h42.18a136.16,136.16,0,0,0,37.89-5.07,112.86,112.86,0,0,0,32-14.85,114.72,114.72,0,0,0,26.75-26,164,164,0,0,0,20.51-36.92,209.76,209.76,0,0,0,10.74-40.82,298,298,0,0,0,3.71-48.63V376.17a280.89,280.89,0,0,0-3.71-46.68,211.07,211.07,0,0,0-10.74-40.43A148,148,0,0,0,5097.07,250a120.34,120.34,0,0,0-32.23-28.12,124.4,124.4,0,0,0-31.05-12.7,144.31,144.31,0,0,0-36.91-4.49h-36.72Z" transform="translate(-10.94 -107.42)"/><path class="cls-2" d="M5448.44,435.16V595.7h273v88.68h-383.2V115.63h382v89.45H5448.44V348.44H5682v86.72Z" transform="translate(-10.94 -107.42)"/><path class="cls-1" d="M404.3,1075.63v88.67H293.36v391.79H404.3v88.29H75.39v-88.29h108.2V1164.3H75.39v-88.67Z" transform="translate(-10.94 -107.42)"/><path class="cls-2" d="M796.88,1644.38l-158.21-366.8v366.8H528.13V1075.63H638.67l157,365.23.39-365.23H906.25v568.75Z" transform="translate(-10.94 -107.42)"/><path class="cls-2" d="M1253.91,1165.08v479.3H1143.75v-479.3h-173v-89.45h458.6v89.45Z" transform="translate(-10.94 -107.42)"/><path class="cls-2" d="M1607.81,1395.16V1555.7h273v88.68h-383.2V1075.63h382v89.45H1607.81v143.36h233.6v86.72Z" transform="translate(-10.94 -107.42)"/><path class="cls-2" d="M2355.47,1555.7v88.68H1978.91V1075.63h110.15V1555.7Z" transform="translate(-10.94 -107.42)"/><path class="cls-2" d="M2804.69,1075.63v88.67H2693.75v391.79h110.94v88.29H2475.78v-88.29H2584V1164.3h-108.2v-88.67Z" transform="translate(-10.94 -107.42)"/><path class="cls-2" d="M3293.75,1604.14q-18.36,13.29-43.36,23.83a301.91,301.91,0,0,1-56.64,17.58,323.53,323.53,0,0,1-67.19,6.64,230.74,230.74,0,0,1-58.79-7.23,179.37,179.37,0,0,1-91.79-55.27,198.28,198.28,0,0,1-31.45-46.49q-14.85-28.9-22.46-65.23t-7.62-78.91v-77.34q0-40.62,7.43-75.59a281,281,0,0,1,21.09-63.47,240.65,240.65,0,0,1,29.88-45.71,211.06,211.06,0,0,1,37.31-35.15,181.65,181.65,0,0,1,52-25.39,202,202,0,0,1,59.37-8.6q48.06,0,83.79,12.11t60.36,34.77a161.81,161.81,0,0,1,38.47,55.86q13.86,32.81,18.17,73.83h-107a182.17,182.17,0,0,0-8.39-36.72,80.26,80.26,0,0,0-15.43-27,67.74,67.74,0,0,0-27.54-18.16q-16.62-6.06-39.65-6.06a76.17,76.17,0,0,0-24.22,3.91,79.72,79.72,0,0,0-21.87,11.33q-13.29,10.15-24,26.56T3036.33,1237a231.09,231.09,0,0,0-8.4,38.28,333.66,333.66,0,0,0-2.93,45.71v78.12a354.56,354.56,0,0,0,4.1,56.25q4.11,25.39,11.53,44.92a135.77,135.77,0,0,0,10.74,20.9,97.34,97.34,0,0,0,13.47,17,83.34,83.34,0,0,0,29.11,18.94q16.59,6.45,37.69,6.84a163.34,163.34,0,0,0,25.39-2,153.83,153.83,0,0,0,23.44-5.47,117,117,0,0,0,19.33-8q8.4-4.49,12.7-9.57l.39-103.13h-94.14v-82h203.52l.39,224.22Q3312.12,1590.86,3293.75,1604.14Z" transform="translate(-10.94 -107.42)"/><path class="cls-2" d="M3528.13,1395.16V1555.7h273v88.68H3418V1075.63h382v89.45H3528.13v143.36h233.59v86.72Zm229.68-369.93h-86.33l-60.15-49.6-59.77,49.6H3466.8v-11.71l113.28-94.14H3643l114.84,94.92Z" transform="translate(-10.94 -107.42)"/><path class="cls-2" d="M4157.42,1644.38l-158.2-366.8v366.8H3888.67V1075.63h110.55l157,365.23.39-365.23H4266.8v568.75Z" transform="translate(-10.94 -107.42)"/><path class="cls-2" d="M4748.24,1543.59a180.11,180.11,0,0,1-42.38,58.6q-26.56,24.22-63.28,37.3t-81.25,13.09q-35.16,0-65-9.18a182.72,182.72,0,0,1-53.71-26.37,185,185,0,0,1-38.87-38.67,241.13,241.13,0,0,1-28.71-50,297.33,297.33,0,0,1-17.38-60.16,382.5,382.5,0,0,1-6.06-69.53v-76.56a376.58,376.58,0,0,1,5.47-65.43,276.58,276.58,0,0,1,16.41-57.62,216.51,216.51,0,0,1,32.81-57.81,211.73,211.73,0,0,1,46.09-43,192,192,0,0,1,50.59-22.85,211.41,211.41,0,0,1,59.18-8q46.88,0,83.4,13.28t62.3,37.89q25.78,24.62,40.63,60.16t18.75,80.08H4657.81q-1.56-25.39-7.61-44.53t-17.39-32a74.84,74.84,0,0,0-29.1-19q-17.39-6.45-41.6-6.44a100.67,100.67,0,0,0-24,2.73,76.81,76.81,0,0,0-20.51,8.2q-16,9.38-27.15,26.76a153.07,153.07,0,0,0-17.77,40.43,241.81,241.81,0,0,0-7.43,39.65,436.17,436.17,0,0,0-2.34,46.68v77.34a444.69,444.69,0,0,0,3.71,60.74q3.7,26.76,11.53,46.68a112.06,112.06,0,0,0,13.08,24.22,77,77,0,0,0,17.38,17.58,72.56,72.56,0,0,0,23.64,11.52,106.24,106.24,0,0,0,29.1,3.72q21.48,0,38.67-5.47a73.57,73.57,0,0,0,29.3-17.19q12.1-11.71,19.14-30.08t8.59-44.14H4766.8Q4764.06,1509.23,4748.24,1543.59Z" transform="translate(-10.94 -107.42)"/><path class="cls-2" d="M5205.08,1075.63v88.67H5094.14v391.79h110.94v88.29H4876.17v-88.29h108.21V1164.3H4876.17v-88.67Z" transform="translate(-10.94 -107.42)"/><path class="cls-2" d="M5441,1525.63l-33.6,118.75H5291.8l186.33-568.75h99.6l182.82,568.75H5644.92l-33.2-118.75Zm144.92-93.36-58.21-209.38L5468,1432.27Z" transform="translate(-10.94 -107.42)"/><path class="cls-1" d="M160.16,2485.63l-33.6,118.75H10.94l186.33-568.75h99.61l182.81,568.75H364.06l-33.2-118.75Zm144.92-93.36-58.2-209.38-59.77,209.38Z" transform="translate(-10.94 -107.42)"/><path class="cls-2" d="M641,2391.88v212.5H531.25V2035.63H721.88q47.25,0,85.54,11.13t65.63,32.62a144,144,0,0,1,41.6,53.51q14.64,32,14.65,74.22,0,30.46-7.23,54.88a151.06,151.06,0,0,1-20.51,43.56,152.65,152.65,0,0,1-32.61,34,214.94,214.94,0,0,1-42.39,25L948.83,2599.3v5.08H831.25l-107-212.5Zm81.25-89.07q25.38,0,44.72-7.22t31.45-20.9a73.12,73.12,0,0,0,15.43-26.17,103.61,103.61,0,0,0,5.27-34q0-22.65-6.84-40a69.72,69.72,0,0,0-20.5-28.71q-12.12-10.16-29.69-15.62t-40.23-5.47H641v178.12Z" transform="translate(-10.94 -107.42)"/><path class="cls-2" d="M1253.91,2125.08v479.3H1143.75v-479.3h-173v-89.45h458.6v89.45Z" transform="translate(-10.94 -107.42)"/><path class="cls-2" d="M1844.53,2035.63v88.67H1733.59v391.79h110.94v88.29h-328.9v-88.29h108.2V2124.3h-108.2v-88.67Z" transform="translate(-10.94 -107.42)"/><path class="cls-2" d="M2088.67,2368.83v235.55H1978.52V2035.63h384.37v89.45H2088.67v154.69h243.75v89.06Z" transform="translate(-10.94 -107.42)"/><path class="cls-2" d="M2804.69,2035.63v88.67H2693.75v391.79h110.94v88.29H2475.78v-88.29H2584V2124.3h-108.2v-88.67Z" transform="translate(-10.94 -107.42)"/><path class="cls-2" d="M3308,2503.59a180.4,180.4,0,0,1-42.38,58.6q-26.58,24.22-63.29,37.3t-81.25,13.09q-35.15,0-65-9.18a182.72,182.72,0,0,1-53.71-26.37,184.93,184.93,0,0,1-38.86-38.67,241.13,241.13,0,0,1-28.71-50,298,298,0,0,1-17.39-60.16,382.52,382.52,0,0,1-6.05-69.53v-76.56a376.58,376.58,0,0,1,5.47-65.43,277.19,277.19,0,0,1,16.4-57.62,216.27,216.27,0,0,1,32.82-57.81,211.27,211.27,0,0,1,46.09-43,191.85,191.85,0,0,1,50.59-22.85,211.31,211.31,0,0,1,59.18-8q46.88,0,83.39,13.28t62.31,37.89q25.78,24.61,40.62,60.16t18.75,80.08H3217.58q-1.57-25.39-7.62-44.53t-17.38-32a74.84,74.84,0,0,0-29.1-18.95q-17.39-6.45-41.6-6.44a100.69,100.69,0,0,0-24,2.73,76.94,76.94,0,0,0-20.51,8.2q-16,9.38-27.14,26.76T3032.42,2195a240.79,240.79,0,0,0-7.42,39.65,436.17,436.17,0,0,0-2.34,46.68v77.34a444.69,444.69,0,0,0,3.71,60.74q3.71,26.76,11.52,46.68a112.08,112.08,0,0,0,13.09,24.22,76.79,76.79,0,0,0,17.38,17.58,72.41,72.41,0,0,0,23.63,11.52,106.24,106.24,0,0,0,29.1,3.72q21.48,0,38.68-5.47a73.53,73.53,0,0,0,29.29-17.19q12.11-11.71,19.14-30.08t8.6-44.14h109.76Q3323.83,2469.23,3308,2503.59Z" transform="translate(-10.94 -107.42)"/><path class="cls-2" d="M3764.84,2035.63v88.67H3653.91v391.79h110.93v88.29h-328.9v-88.29h108.2V2124.3h-108.2v-88.67Z" transform="translate(-10.94 -107.42)"/><path class="cls-2" d="M4000.78,2485.63l-33.59,118.75H3851.56l186.33-568.75h99.61l182.81,568.75H4204.69l-33.21-118.75Zm144.92-93.36-58.2-209.38-59.77,209.38Z" transform="translate(-10.94 -107.42)"/><path class="cls-2" d="M4755.86,2515.7v88.68H4379.3V2035.63h110.15V2515.7Z" transform="translate(-10.94 -107.42)"/></g></g></svg>