<?xml version="1.0" standalone="no"?>
<!DOCTYPE svg PUBLIC "-//W3C//DTD SVG 20010904//EN"
 "http://www.w3.org/TR/2001/REC-SVG-20010904/DTD/svg10.dtd">
<svg version="1.0" xmlns="http://www.w3.org/2000/svg"
 width="630.000000pt" height="630.000000pt" viewBox="0 0 630.000000 630.000000"
 preserveAspectRatio="xMidYMid meet">
<metadata>
Created by potrace 1.16, written by Peter Selinger 2001-2019
</metadata>
<g transform="translate(0.000000,630.000000) scale(0.100000,-0.100000)"
fill="#000000" stroke="none">
<path d="M3245 6282 c-98 -60 -155 -340 -141 -687 10 -227 22 -265 83 -265 37
0 48 41 83 310 17 135 38 274 45 310 14 66 41 140 51 140 3 0 36 -18 74 -40
99 -58 265 -190 430 -344 l145 -135 429 -1 429 0 121 118 c170 167 417 345
509 368 24 5 29 2 41 -28 20 -47 44 -229 56 -423 20 -315 8 -1857 -20 -2670
-20 -571 -94 -1214 -221 -1915 -104 -571 -113 -634 -113 -791 -1 -131 1 -149
18 -168 22 -24 77 -28 95 -7 7 8 16 40 22 73 48 291 68 395 124 643 202 902
247 1288 276 2380 16 621 17 2324 1 2530 -34 434 -96 610 -213 610 -49 0 -201
-77 -349 -177 -137 -92 -205 -146 -337 -269 l-108 -100 -70 14 c-50 11 -150
15 -357 16 l-288 1 -102 100 c-187 183 -407 344 -539 395 -90 35 -132 37 -174
12z"/>
<path d="M3117 5120 c-48 -38 -76 -178 -97 -487 -13 -197 -4 -280 44 -396 72
-175 81 -244 43 -337 -31 -76 -65 -123 -207 -285 -242 -276 -386 -483 -518
-742 -159 -314 -283 -690 -326 -993 -58 -408 -41 -876 37 -1015 18 -31 29 -41
54 -43 50 -5 54 21 63 408 12 451 28 599 95 855 71 272 201 609 315 816 112
204 201 331 405 580 247 301 282 372 273 561 -4 87 -11 122 -47 226 -53 155
-62 232 -51 447 14 275 13 391 -6 409 -21 21 -46 20 -77 -4z"/>
<path d="M3563 2475 c-44 -31 -58 -96 -57 -265 2 -225 35 -476 90 -680 35
-129 130 -421 263 -808 61 -177 129 -398 152 -490 52 -210 58 -224 106 -220
61 5 78 40 77 156 -1 182 -62 412 -230 874 -172 471 -220 673 -274 1143 -23
202 -41 280 -70 295 -25 13 -32 13 -57 -5z"/>
<path d="M714 2225 c-75 -16 -121 -39 -203 -101 -120 -90 -238 -250 -302 -409
-205 -514 -32 -1081 440 -1435 166 -125 424 -242 594 -270 83 -13 1817 -13
2002 0 77 6 176 15 219 21 185 24 316 121 248 182 -25 22 -83 22 -218 -3 -60
-10 -156 -24 -214 -30 -242 -24 -1702 -40 -1913 -20 -329 31 -709 263 -893
545 -193 297 -221 638 -78 977 61 146 183 286 293 337 104 48 222 29 274 -43
18 -26 22 -44 22 -106 -1 -63 -8 -95 -44 -195 -62 -172 -81 -256 -81 -359 0
-163 49 -285 160 -397 76 -77 156 -119 281 -148 179 -42 358 -52 512 -27 110
18 137 34 137 81 0 55 12 52 -371 85 -293 25 -417 86 -487 238 -38 81 -55 162
-46 215 3 21 32 114 65 207 32 93 63 199 70 235 36 207 -101 390 -318 425 -70
12 -72 12 -149 -5z"/>
<path d="M4599 1733 c-11 -13 -14 -86 -12 -397 4 -656 27 -1203 53 -1271 19
-49 88 -23 118 44 14 30 17 89 20 381 4 354 -11 898 -29 1074 -11 105 -25 145
-61 170 -29 21 -72 20 -89 -1z"/>
</g>
</svg>
